<svg xmlns="http://www.w3.org/2000/svg" width="100" height="100" fill="none" xmlns:v="https://vecta.io/nano"><g clip-path="url(#A)"><path fill="#fff" d="M0 0h100v100H0z"/><path fill="#d9d9d9" d="M0 0h100v100H0z"/><path d="M25.403 82.256c-.606-.542-.646-2.47-.051-2.47.146 0 .167.082.091.353-.34 1.215.052 1.991 1.004 1.991.935 0 1.142-.376 1.142-2.081 0-1.373.053-1.546.475-1.546.145 0-.056 3.025-.224 3.377-.378.792-1.737 1.002-2.438.375zm3.598.178c0-.111.219-.205.6-.257.546-.075 1.068-.367 1.068-.597 0-.051-.294-.131-.653-.178-1.512-.201-1.826-2.182-.419-2.647.928-.306 1.586.332 1.586 1.539v.648h3.582c4.46 0 3.987.23 3.987-1.938 0-1.499.031-1.782.193-1.782s.193.254.194 1.507c.002 1.832.114 2.132.82 2.19.435.036.484.013.401-.193-.39-.968.004-1.871.888-2.037 1.63-.306 2.086 2.187.481 2.632-.685.19-1.957.162-2.369-.053-.308-.161-.411-.161-.798.001-.349.146-1.175.186-3.88.186l-3.436.001-.222.389c-.35.614-2.023 1.101-2.023.588zm1.77-2.191c-.09-1.083-.924-1.553-1.442-.813s-.061 1.511.907 1.511h.593l-.058-.698zm11.257.383c.576-.576.238-1.484-.551-1.479-.697.004-1.011.506-.802 1.282.173.642.814.736 1.353.198zm7.114 1.79c0-.106.103-.192.228-.192.68 0 .798-.293.798-1.982 0-1.562.047-1.738.46-1.738.029 0 .054.479.054 1.065 0 1.473-.289 1.373 3.971 1.371 4.144-.002 4.019.027 4.11-.976.094-1.038.387-1.086.387-.063 0 .973.186 1.109 1.366.999 1.243-.116 2.176-.556 1.878-.886-.46-.509-1.286-.895-1.713-.801-.343.075-.393.054-.354-.15.032-.17.178-.248.517-.277 1.034-.086 2.87 1.519 2.083 1.821-.342.131-.066.335.454.335.921 0 .901.042.901-1.938 0-1.499.031-1.782.192-1.782s.192.27.192 1.659c0 1.832.086 2.062.77 2.062s.77-.229.77-2.062c0-1.389.031-1.659.192-1.659.231 0 .286 3.305.062 3.724-.209.39-1.01.572-1.544.351-.368-.153-.508-.156-.828-.018-.598.257-1.066.213-1.412-.133l-.31-.31-.614.23c-.963.36-1.74.433-2.271.211-.404-.169-.514-.169-.905-.006-.526.22-7.007.273-7.561.062-.304-.115-.334-.091-.459.371-.193.716-1.414 1.334-1.414.715zm9.114.007c-.26-.314.078-.684.364-.398.18.18.18.218 0 .398s-.215.18-.364 0zm.898 0c-.26-.314.078-.684.364-.398.18.18.18.218 0 .398s-.215.18-.364 0zm-15.004-1.105c-.584-.241-.645-.458-.649-2.334-.003-1.484.026-1.764.188-1.764s.192.27.192 1.659c0 2.26.447 2.531 2.75 1.669l.745-.279-.368-.308c-.586-.491-1.308-.828-1.687-.789-.241.025-.349-.023-.349-.156 0-.348.904-.316 1.514.053.773.468 1.244.924 1.244 1.203 0 .55-2.8 1.367-3.58 1.045zm-17.834-2.482c-.181-.218-.085-.461.182-.461.278 0 .37.262.165.468-.163.163-.207.162-.347-.007zm34.89-.775c-.26-.314.078-.683.364-.398.18.18.18.218 0 .398s-.215.18-.364 0zm3.741-34.991c-.238-.237-.208-.295.637-1.223 1.235-1.356 2.631-3.147 4.21-5.403 1.448-2.068 1.829-2.414 2.126-1.933.257.416-6.084 8.712-6.658 8.712a.54.54 0 0 1-.315-.154zm5.567-6.919c-.185-.406 1.493-2.967 4.859-7.808l3.082-4.554c.418-.742.658-.973.911-.876.547.21.177.857-3.605 6.3-3.138 4.517-5.018 7.442-5.247 6.938zm3.799-3.275c-.822-.251-.803-.357.159-.89 1.297-.718 3.177-.878 4.385-.373 1.632.682-2.598 1.857-4.545 1.263zm-2.334-1.668c-1.078-1.213-1.779-3.654-1.361-4.743.342-.891 2.024 2.162 2.104 3.819.076 1.56-.045 1.71-.743.925zm4.062-1.015c-1.563-.495 1.719-1.856 3.611-1.498 1.241.235 1.509.377 1.251.662-.773.854-3.384 1.303-4.862.835zm-2.315-1.588c-1.159-1.24-2.063-4.753-1.222-4.753.781 0 2.039 2.63 2.026 4.234-.01 1.215-.099 1.273-.804.519zm4.857-.654c-1.444-.351-1.455-.578-.055-1.206 2.017-.905 5.561-.457 3.932.497-1.163.682-2.774.976-3.877.709zm-2.883-2.046c-1.164-1.221-2.135-4.875-1.295-4.875 1.009 0 2.384 3.637 1.94 5.132l-.095.321-.55-.577zm4.262-.853c-.802-.245-.825-.332-.192-.728 1.305-.817 3.527-1.078 4.715-.552l.513.227-.385.313c-1.006.817-3.237 1.172-4.65.74zm-2.429-1.75c-1.358-1.424-2.222-5.432-.998-4.63.918.601 1.727 2.495 1.727 4.039 0 1.218-.074 1.278-.729.591zm2.012-.929c0-1.482 1.312-3.458 2.802-4.221.561-.287.606-.215.41.665-.335 1.507-1.32 2.868-2.568 3.547l-.644.351v-.341z" fill="#ff9e35"/><path d="M26.386 75.074c-1.366-.415-2.053-1.364-2.049-2.831.002-.668.326-2.305.49-2.468.184-.184 1.33.161 1.248.375-.729 1.899-.087 3.376 1.467 3.376 1.569 0 1.796-.469 1.796-3.708v-2.45h.369c.203 0 .549-.036.77-.08l.401-.08v2.687c0 4.559-1.363 6.131-4.491 5.179zm6.157-.233c-.001-.194-.037-.483-.079-.641-.071-.265-.034-.289.444-.289 1.124 0 2.459-.493 2.459-.907 0-.066-.274-.119-.609-.12-2.226-.002-3.54-2.035-2.611-4.04 1.271-2.746 4.888-1.704 4.888 1.407v.966h.438c.779 0 .821-.054.747-.97-.152-1.896 1.04-3.131 2.874-2.979 1.695.141 2.734 1.795 2.23 3.552l-.125.435 1.396-.074c2.141-.113 4.038-.671 3.536-1.041-1.274-.938-2.129-1.248-3.054-1.108l-.589.09-.134-.627-.134-.736c0-.183 1.269-.426 1.87-.359.715.081 1.635.548 2.941 1.493 1.105.8 1.101.791.896 1.918-.258 1.42-7.258 2.732-9.855 1.847-.736-.251-.759-.251-1.38-.015-.348.132-.858.24-1.134.24-.454 0-.51.037-.587.388-.249 1.136-1.773 1.921-3.726 1.921-.677 0-.699-.011-.701-.353zm2.664-3.577c.445-.119.427-1.529-.026-2.017-.676-.729-1.853-.212-1.862.819-.008.901.884 1.468 1.888 1.199zm6.73-.561c.341-1.531-.973-2.603-1.876-1.53-.78.927-.044 2.094 1.267 2.011.468-.03.517-.069.609-.481zm11.215 4.201c-.197-.733-.109-.957.408-1.04 1.051-.168 1.11-.353 1.154-3.621l.039-2.877h.362a4.72 4.72 0 0 0 .763-.08l.401-.08v1.69c0 2.09.175 2.397 1.303 2.288.956-.092 1.162-.361 1.235-1.614l.059-1.019.58-.079c.987-.135.929-.21.929 1.191v1.27l.404.141c.757.264 1.437.189 1.333-.148-.611-1.989.49-3.677 2.404-3.686 2.92-.013 3.796 3.909 1.183 5.298-1.033.549-4.521.475-5.39-.115-.442-.3-.493-.309-.706-.116-.566.513-2.098.719-2.888.389l-.445-.186-.003.41c-.003.502-.38 1.353-.74 1.673-.684.608-2.249.811-2.383.309zm11.644-3.811c1.229-.467 1.087-2.314-.178-2.314-.948 0-1.423.799-1.084 1.821.221.666.51.779 1.261.493zm-13.778-2.169v-3.96l.481-.08c.265-.044.611-.08.77-.081l.289-.001v4.041 4.041h-.77-.77v-3.96zm-28.445-.153c-.976-.204-1.574-.956-1.574-1.98 0-2.408 3.454-2.774 3.965-.42.313 1.446-.939 2.704-2.391 2.4zm1.338-.5c1.436-.875.84-3.212-.819-3.212-1.131 0-1.835.707-1.836 1.843-.001 1.307 1.493 2.078 2.655 1.369zm-1.886-1.48v-1.219h.75c1.028 0 1.703.975.962 1.389-.193.108-.187.154.064.507.351.493.347.541-.043.541-.224 0-.406-.134-.609-.448-.367-.566-.482-.566-.482-.001 0 .393-.04.449-.321.449-.32 0-.321-.004-.321-1.219zm1.259-.417c-.065-.34-.618-.377-.618-.041 0 .2.082.266.33.266s.319-.058.287-.224zm3.615 1.57l-.569-.579.542-.542.542-.542.579.579.579.579-.552.542-.552.542-.569-.579zm31.176-.64l-.566-.577.501-.514c.604-.618.631-.621 1.109-.109l.378.404.444-.43.444-.43.577.566.577.566-.534.545-.534.544-.5-.396-.5-.396-.415.402-.414.402-.566-.576zm4.196-1.186c-.09-.468-.056-.503.582-.598l.547-.082-.044-.554c-.092-1.155 1.172-1.769 1.98-.961.529.529.418 1.572-.203 1.905-.185.099-2.519.642-2.759.642-.019 0-.065-.158-.102-.352zm2.474-1.122c.229-.276.059-.605-.287-.556-.391.056-.503.747-.121.747.137 0 .321-.086.408-.191zM42.959 58.77c.031-.093.624-.372 1.316-.62 1.714-.613 2.619-1.541 1.885-1.934-.185-.099-.754.05-2.47.646-7.196 2.499-13.511 2.209-19.741-.907-1.548-.774-1.796-.961-1.796-1.355 0-.449.23-.535 1.668-.629 6.416-.417 11.757-2.728 15.537-6.722.998-1.054 2.528-2.972 2.371-2.972-.03 0-.474.289-.986.642-1.496 1.03-1.514 1.02-2.857-1.712-2.59-5.267-6.851-10.323-11.464-13.601-1.521-1.081-1.431-1.463.415-1.75 1.39-.216 1.385-.198.317-1.148-1.712-1.522-1.493-1.612 3.915-1.605 11.753.016 20.563 4.061 24.445 11.225.362.668.624 1.108.582.978-.303-.945-.245-1.154.439-1.613 1.066-.714 2.322-1.959 3.132-3.106 3.062-4.334 8.623-5.159 11.207-1.664.372.503.445.4-.869 1.229-1.412.891-1.378.835-.903 1.49.214.296.389.586.389.646s-1.259 1.913-2.797 4.118l-4.448 6.447c-5.9 8.711-10.033 12.162-16.357 13.657-1.492.353-3.008.487-2.932.26zm29.356-24.315c-.247-.091-.808-.17-1.246-.176-.764-.009-1.448-.506-1.448-1.052 0-.109 1.852-1.266 2.027-1.266.361 0 1.486 2.452 1.199 2.614-.046.026-.285-.028-.532-.119z" fill="#175142"/></g><defs><clipPath id="A"><path fill="#fff" d="M0 0h100v100H0z"/></clipPath></defs></svg>